# AST/ASF file generated using VICON BodyLanguage
# -----------------------------------------------
:version 1.10
:name VICON
:units
  mass 1.0
  length 0.45
  angle deg
:documentation
   .ast/.asf automatically generated from VICON data using
   VICON BodyBuilder and BodyLanguage model FoxedUp or BRILLIANT.MOD
:root
   order TX TY TZ RX RY RZ
   axis XYZ
   position 0 0 0  
   orientation 0 0 0 
:bonedata
  begin
     id 1 
     name lhipjoint
     direction 0.560651 -0.75055 0.34978 
     length 2.44936 
     axis 0 0 0  XYZ
  end
  begin
     id 2 
     name lfemur
     direction 0.34202 -0.939693 0  
     length 7.42139  
     axis 0 0 20  XYZ
    dof rx ry rz
    limits (-160.0 20.0)
           (-70.0 70.0)
           (-60.0 70.0)
  end
  begin
     id 3 
     name ltibia
     direction 0.34202 -0.939693 0   
     length 7.75674   
     axis 0 0 20   XYZ
    dof rx
    limits (-10.0 170.0)
  end
  begin
     id 4 
     name lfoot
     direction 0.0925879 -0.254383 0.962661   
     length 2.38688   
     axis -90 7.62852e-016 20   XYZ
    dof rx rz
    limits (-45.0 90.0)
           (-70.0 20.0)
  end
  begin
     id 5 
     name ltoes
     direction 1.53567e-011 -4.21973e-011 1   
     length 1.19228   
     axis -90 7.62852e-016 20   XYZ
    dof rx
    limits (-90.0 20.0)
  end
  begin
     id 6 
     name rhipjoint
     direction -0.540087 -0.762838 0.355506   
     length 2.4099  
     axis 0 0 0  XYZ 
  end
  begin
     id 7 
     name rfemur
     direction -0.34202 -0.939693 0   
     length 7.70794   
     axis 0 0 -20   XYZ
    dof rx ry rz
    limits (-160.0 20.0)
           (-70.0 70.0)
           (-70.0 60.0)
  end
  begin
     id 8 
     name rtibia
     direction -0.34202 -0.939693 0   
     length 7.66106   
     axis 0 0 -20   XYZ
    dof rx
    limits (-10.0 170.0)
 end
 begin
     id 9 
     name rfoot
     direction -0.0830975 -0.228308 0.970036   
     length 2.4989  
     axis -90 -7.62852e-016 -20   XYZ
    dof rx rz
    limits (-45.0 90.0)
           (-20.0 70.0)
  end
  begin
     id 10 
     name rtoes
     direction -1.53517e-011 -4.21842e-011 1   
     length 1.2498   
     axis -90 -7.62852e-016 -20   XYZ
    dof rx
    limits (-90.0 20.0)
  end
  begin
     id 11 
     name lowerback
     direction 0.0266356 0.99402 -0.105896   
     length 2.1545   
     axis 0 0 0   XYZ
    dof rx ry rz
    limits (-20.0 45.0)
           (-30.0 30.0)
           (-30.0 30.0)
  end
  begin
     id 12 
     name upperback
     direction 0.0130547 0.999192 0.0380027   
     length 2.1434   
     axis 0 0 0   XYZ
    dof rx ry rz
    limits (-20.0 45.0)
           (-30.0 30.0)
           (-30.0 30.0)
  end
  begin
     id 13 
     name thorax
     direction 0.000590299 0.996288 0.0860764   
     length 2.19049   
     axis 0 0 0   XYZ
    dof rx ry rz
    limits (-20.0 45.0)
           (-30.0 30.0)
           (-30.0 30.0)
  end
  begin
     id 14 
     name lowerneck
     direction -0.0432125 0.978219 0.203028   
     length 1.62441   
     axis 0 0 0   XYZ
    dof rx ry rz
    limits (-20.0 45.0)
           (-30.0 30.0)
           (-30.0 30.0)
  end
  begin
     id 15 
     name upperneck
     direction -0.0192309 0.991699 -0.127138   
     length 1.66666   
     axis 0 0 0   XYZ
    dof rx ry rz
    limits (-20.0 45.0)
           (-30.0 30.0)
           (-30.0 30.0)
  end
  begin
     id 16
     name head
     direction -0.00434499 0.997882 -0.0649107  
     length 1.67142  
     axis 0 0 0   XYZ
    dof rx ry rz
    limits (-20.0 45.0)
           (-30.0 30.0)
           (-30.0 30.0)
  end
  begin
     id 17 
     name lclavicle
     direction 0.970351 0.240904 -0.0196058  
     length 4.04862  
     axis 0 0 0   XYZ
    dof ry rz
    limits (-20.0 10.0)
           (0.0 20.0)
  end
  begin
     id 18 
     name lhumerus
     direction 1 -4.4896e-011 -1.40911e-018   
     length 5.58345   
     axis 180 -30 -90   XYZ
    dof rx ry rz
    limits (-60.0 90.0)
           (-90.0 90.0)
           (-90.0 90.0)
  end
  begin
     id 19
     name lradius
     direction 1 -4.48968e-011 5.88912e-028   
     length 3.71087   
     axis 180 -30 -90   XYZ
    dof rx
    limits (-10.0 170.0)
  end
  begin
     id 20
     name lwrist
     direction 1 -4.48955e-011 -8.83775e-028   
     length 1.85544   
     axis 5.52448e-016 90 90   XYZ
    dof ry
    limits (-180.0 0.0)
 end
  begin
     id 21 
     name lhand
     direction 1 -4.49035e-011 -1.76755e-027   
     length 0.562322   
     axis 1.12785e-015 90 90   XYZ
    dof rx rz
    limits (-90.0 90.0)
           (-45.0 45.0)
  end
  begin
     id 22 
     name lfingers
     direction 1 -4.48824e-011 -3.5351e-027   
     length 0.453359   
     axis 2.2557e-015 90 90   XYZ
    dof rx
    limits (0.0 90.0)
  end
  begin
     id 23
     name lthumb
     direction 0.707107 -6.34888e-011 0.707107   
     length 0.650935   
     axis -90 45 2.85299e-015   XYZ
    dof rx rz
    limits (-45.0 45.0)
           (-45.0 45.0)
  end
  begin
     id 24 
     name rclavicle
     direction -0.96165 0.268562 -0.0557131   
     length 4.05446  
     axis 0 0 0   XYZ 
    dof ry rz
    limits (-10.0 20.0)
           (-20.0 0.0)
  end
  begin
     id 25 
     name rhumerus
     direction -1 -4.48957e-011 -3.36329e-027  
     length 5.20357   
     axis 180 30 90   XYZ
    dof rx ry rz
    limits (-90.0 60.0)
           (-90.0 90.0)
           (-90.0 90.0)
  end
  begin
     id 26 
     name rradius
     direction -1 -4.48974e-011 4.51441e-027   
     length 3.64937   
     axis 180 30 90   XYZ
    dof rx
    limits (-10.0 170.0)
  end
  begin
     id 27 
     name rwrist
     direction -1 -4.4896e-011 -8.83775e-028   
     length 1.82468   
     axis 5.52448e-016 -90 -90   XYZ
    dof ry
    limits (-180.0 0.0)
  end
  begin
     id 28
     name rhand
     direction -1 -4.48996e-011 -1.76755e-027   
     length 0.617996   
     axis 1.12785e-015 -90 -90   XYZ
    dof rx rz
    limits (-90.0 90.0)
           (-45.0 45.0)
  end
  begin
     id 29
     name rfingers
     direction -1 -4.48957e-011 -3.5351e-027   
     length 0.498244   
     axis 2.2557e-015 -90 -90   XYZ
    dof rx
    limits (0.0 90.0)
  end
  begin
     id 30
     name rthumb
     direction -0.707107 -6.34931e-011 0.707107   
     length 0.715382   
     axis -90 -45 -2.85299e-015   XYZ
    dof rx rz
    limits (-45.0 45.0)
           (-45.0 45.0)
  end
:hierarchy
  begin
    root lhipjoint rhipjoint lowerback
    lhipjoint lfemur
    lfemur ltibia
    ltibia lfoot
    lfoot ltoes
    rhipjoint rfemur
    rfemur rtibia
    rtibia rfoot
    rfoot rtoes
    lowerback upperback
    upperback thorax
    thorax lowerneck lclavicle rclavicle
    lowerneck upperneck
    upperneck head
    lclavicle lhumerus
    lhumerus lradius
    lradius lwrist
    lwrist lhand lthumb
    lhand lfingers
    rclavicle rhumerus
    rhumerus rradius
    rradius rwrist
    rwrist rhand rthumb
    rhand rfingers
  end

#!OML:ASF H:\ManfredETheater\Project 1\Capture day 2\Session 1\Male1.ASF
:FULLY-SPECIFIED
:DEGREES
252
root 3.15291 17.494 18.2837 9.63871 -1.52229 -4.22905
lowerback 4.67643 0.365248 3.78527
upperback -3.52336 0.960378 3.25086
thorax -6.29984 0.38666 1.1734
lowerneck -24.8551 1.15956 0.409044
upperneck 20.6356 2.83403 -5.19329
head 10.8568 0.643056 -1.49508
rclavicle -1.98785e-016 -2.8625e-014
rhumerus -30.0026 -4.82504 -86.3791
rradius 30.3778
rwrist 4.69617
rhand -27.1274 -12.8599
rfingers 7.12502
rthumb -0.543169 -42.8389
lclavicle -1.98785e-016 -2.8625e-014
lhumerus -40.548 -0.147303 90.6873
lradius 39.7798
lwrist -6.01818
lhand -6.20637 9.26475
lfingers 7.12502
lthumb 19.634 38.2933
rfemur -7.68097 0.34893 22.6471
rtibia 31.3751
rfoot -27.2172 -0.773519
rtoes -4.53452
lfemur -7.93538 -4.39485 -19.1104
ltibia 31.3583
lfoot -27.542 3.35757
ltoes 10.113
253
root 3.16226 17.4742 18.3526 9.8236 -1.45095 -4.1303
lowerback 4.77514 0.346327 3.70188
upperback -3.60127 0.93632 3.20452
thorax -6.43959 0.375401 1.17435
lowerneck -24.7709 1.15589 0.417466
upperneck 20.6441 2.81796 -5.1659
head 10.8435 0.641165 -1.48903
rclavicle -3.42904e-015 1.19271e-014
rhumerus -30.0593 -4.48064 -86.5876
rradius 30.6917
rwrist 4.48008
rhand -27.2239 -12.6624
rfingers 7.12502
rthumb -0.636383 -42.6412
lclavicle -3.42904e-015 1.19271e-014
lhumerus -40.6884 -0.497617 90.8254
lradius 40.159
lwrist -5.60433
lhand -6.14979 9.64211
lfingers 7.12502
lthumb 19.6884 38.6651
rfemur -7.73075 0.32421 22.5242
rtibia 31.6165
rfoot -27.5232 -0.940512
rtoes -5.0571
lfemur -7.88974 -4.39516 -19.2499
ltibia 31.3571
lfoot -27.7688 3.31816
ltoes 10.0872
254
root 3.17583 17.4536 18.4205 10.0165 -1.37747 -4.04639
lowerback 4.79809 0.343497 3.66295
upperback -3.58214 0.928471 3.17733
thorax -6.43238 0.372795 1.16819
lowerneck -24.8474 1.12082 0.365286
upperneck 20.6126 2.77792 -5.12914
head 10.8431 0.622896 -1.47339
rclavicle 1.98785e-015 -4.13472e-014
rhumerus -29.9916 -4.23414 -86.7287
rradius 31.0754
rwrist 4.3392
rhand -27.1179 -12.6661
rfingers 7.12502
rthumb -0.534005 -42.6452
lclavicle 1.98785e-015 -4.13472e-014
lhumerus -40.5965 -0.876531 91.027
lradius 40.4897
lwrist -5.27715
lhand -6.08964 9.70157
lfingers 7.12502
lthumb 19.7462 38.7186
rfemur -7.8204 0.195933 22.3893
rtibia 31.9078
rfoot -27.8431 -0.999956
rtoes -5.58312
lfemur -7.84582 -4.37464 -19.3864
ltibia 31.3486
lfoot -28.0114 3.27052
ltoes 10.0551
255
root 3.18482 17.4324 18.4885 10.2426 -1.29662 -3.98893
lowerback 4.84158 0.331287 3.60529
upperback -3.57803 0.909069 3.15786
thorax -6.45343 0.365145 1.18187
lowerneck -25.0198 1.10591 0.350006
upperneck 20.6542 2.76344 -5.11519
head 10.8889 0.613471 -1.46897
rclavicle -7.45443e-016 4.77083e-015
rhumerus -29.9099 -3.87148 -86.9192
rradius 31.4488
rwrist 4.10988
rhand -27.2237 -12.4351
rfingers 7.12502
rthumb -0.636186 -42.4139
lclavicle -7.45443e-016 4.77083e-015
lhumerus -40.4664 -1.22876 91.1911
lradius 40.7986
lwrist -4.90715
lhand -6.07795 9.84267
lfingers 7.12502
lthumb 19.7574 38.8585
rfemur -7.9705 0.159839 22.3189
rtibia 32.2577
rfoot -28.1672 -1.14353
rtoes -6.01192
lfemur -7.84442 -4.3785 -19.4705
ltibia 31.3435
lfoot -28.2434 3.22187
ltoes 10.0622
256
root 3.19855 17.4096 18.5592 10.4256 -1.18016 -3.79987
lowerback 4.95635 0.29251 3.4982
upperback -3.64009 0.853599 3.0709
thorax -6.58526 0.338795 1.15679
lowerneck -24.9597 1.1029 0.397364
upperneck 20.6542 2.73857 -5.10743
head 10.8774 0.608012 -1.4779
rclavicle 5.01931e-015 3.65764e-014
rhumerus -29.9887 -3.56931 -87.111
rradius 31.8466
rwrist 3.94981
rhand -27.1098 -12.4792
rfingers 7.12502
rthumb -0.526128 -42.4583
lclavicle 5.01931e-015 3.65764e-014
lhumerus -40.5571 -1.63029 91.3231
lradius 41.1659
lwrist -4.61824
lhand -6.34798 9.59549
lfingers 7.12502
lthumb 19.4978 38.6379
rfemur -8.09862 -0.0546154 22.071
rtibia 32.6598
rfoot -28.4926 -1.15843
rtoes -6.40177
lfemur -7.76736 -4.43712 -19.7205
ltibia 31.3105
lfoot -28.4816 3.16842
ltoes 10.1448
257
root 3.20788 17.3863 18.6307 10.6413 -1.15756 -3.7059
lowerback 4.98122 0.274636 3.35535
upperback -3.63798 0.819365 3.06464
thorax -6.59875 0.328214 1.2337
lowerneck -24.8868 1.13104 0.415905
upperneck 20.5434 2.77113 -5.13466
head 10.825 0.623942 -1.48416
rclavicle -4.47266e-015 -2.06736e-014
rhumerus -30.0217 -3.18422 -87.2705
rradius 32.3503
rwrist 3.77006
rhand -27.1764 -12.3288
rfingers 7.12502
rthumb -0.590505 -42.3078
lclavicle -4.47266e-015 -2.06736e-014
lhumerus -40.5587 -1.94672 91.4853
lradius 41.6169
lwrist -4.19127
lhand -6.35088 9.70896
lfingers 7.12502
lthumb 19.495 38.7516
rfemur -8.29442 -0.0660587 21.9544
rtibia 33.1282
rfoot -28.8171 -1.30685
rtoes -7.00655
lfemur -7.72799 -4.40019 -19.8599
ltibia 31.28
lfoot -28.7122 3.17619
ltoes 10.0201
